<svg width="80" height="16" viewBox="0 0 80 16" fill="none" xmlns="http://www.w3.org/2000/svg">
<path d="M0 0.349726H7.31639C8.97053 0.349726 10.4267 0.663023 11.685 1.28962C12.9574 1.90164 13.94 2.78324 14.6328 3.93443C15.3397 5.08561 15.6931 6.4408 15.6931 8C15.6931 9.5592 15.3397 10.9144 14.6328 12.0656C13.94 13.2168 12.9574 14.1056 11.685 14.7322C10.4267 15.3443 8.97053 15.6503 7.31639 15.6503H0V0.349726ZM7.10432 11.6284C8.17881 11.6284 9.03415 11.3151 9.67036 10.6885C10.3207 10.0474 10.6459 9.15118 10.6459 8C10.6459 6.84882 10.3207 5.95993 9.67036 5.33333C9.03415 4.69217 8.17881 4.37158 7.10432 4.37158H5.00484V11.6284H7.10432Z" fill="black"/>
<path d="M31.9837 11.7596V15.6503H19.6413V0.349726H31.708V4.24044H24.5613V6.03279H30.8385V9.74863H24.5613V11.7596H31.9837Z" fill="black"/>
<path d="M51.6868 0.349726L45.4095 15.6503H40.4895L34.2122 0.349726H39.5988L43.1404 9.28962L46.7668 0.349726H51.6868Z" fill="black"/>
<path d="M54.3055 0.349726H59.3103V15.6503H54.3055V0.349726Z" fill="black"/>
<path d="M71.6233 16C70.0257 16 68.5907 15.6576 67.3183 14.9727C66.0458 14.2878 65.0491 13.3406 64.3281 12.1311C63.607 10.9071 63.2465 9.53005 63.2465 8C63.2465 6.46994 63.607 5.10018 64.3281 3.89071C65.0491 2.66667 66.0458 1.7122 67.3183 1.02732C68.5907 0.342441 70.0257 0 71.6233 0C73.2208 0 74.6559 0.342441 75.9283 1.02732C77.2007 1.7122 78.1974 2.66667 78.9184 3.89071C79.6395 5.10018 80 6.46994 80 8C80 9.53005 79.6395 10.9071 78.9184 12.1311C78.1974 13.3406 77.2007 14.2878 75.9283 14.9727C74.6559 15.6576 73.2208 16 71.6233 16ZM71.6233 11.8251C72.2453 11.8251 72.8038 11.6721 73.2986 11.3661C73.8076 11.0455 74.2105 10.6011 74.5074 10.0328C74.8043 9.44991 74.9528 8.77231 74.9528 8C74.9528 7.22769 74.8043 6.55738 74.5074 5.98907C74.2105 5.40619 73.8076 4.96175 73.2986 4.65574C72.8038 4.33515 72.2453 4.17486 71.6233 4.17486C71.0012 4.17486 70.4357 4.33515 69.9267 4.65574C69.4319 4.96175 69.036 5.40619 68.7391 5.98907C68.4422 6.55738 68.2938 7.22769 68.2938 8C68.2938 8.77231 68.4422 9.44991 68.7391 10.0328C69.036 10.6011 69.4319 11.0455 69.9267 11.3661C70.4357 11.6721 71.0012 11.8251 71.6233 11.8251Z" fill="black"/>
</svg>
