<svg width="68" height="14" viewBox="0 0 68 14" fill="none" xmlns="http://www.w3.org/2000/svg">
<path d="M0 0.30601H6.21893C7.62495 0.30601 8.86273 0.580145 9.93227 1.12842C11.0138 1.66393 11.849 2.43534 12.4379 3.44262C13.0387 4.44991 13.3392 5.6357 13.3392 7C13.3392 8.3643 13.0387 9.55009 12.4379 10.5574C11.849 11.5647 11.0138 12.3424 9.93227 12.8907C8.86273 13.4262 7.62495 13.694 6.21893 13.694H0V0.30601ZM6.03867 10.1749C6.95199 10.1749 7.67903 9.90073 8.21981 9.35246C8.7726 8.79144 9.049 8.00729 9.049 7C9.049 5.99271 8.7726 5.21494 8.21981 4.66667C7.67903 4.10565 6.95199 3.82514 6.03867 3.82514H4.25411V10.1749H6.03867Z" fill="white"/>
<path d="M27.1861 10.2896V13.694H16.6951V0.30601H26.9518V3.71038H20.8771V5.27869H26.2127V8.53005H20.8771V10.2896H27.1861Z" fill="white"/>
<path d="M43.9337 0.30601L38.5981 13.694H34.4161L29.0804 0.30601H33.659L36.6693 8.12842L39.7517 0.30601H43.9337Z" fill="white"/>
<path d="M46.1597 0.30601H50.4138V13.694H46.1597V0.30601Z" fill="white"/>
<path d="M60.8798 14C59.5218 14 58.3021 13.7004 57.2205 13.1011C56.139 12.5018 55.2917 11.673 54.6789 10.6148C54.066 9.54372 53.7595 8.3388 53.7595 7C53.7595 5.6612 54.066 4.46266 54.6789 3.40437C55.2917 2.33333 56.139 1.49818 57.2205 0.898907C58.3021 0.299636 59.5218 0 60.8798 0C62.2377 0 63.4575 0.299636 64.539 0.898907C65.6206 1.49818 66.4678 2.33333 67.0807 3.40437C67.6936 4.46266 68 5.6612 68 7C68 8.3388 67.6936 9.54372 67.0807 10.6148C66.4678 11.673 65.6206 12.5018 64.539 13.1011C63.4575 13.7004 62.2377 14 60.8798 14ZM60.8798 10.347C61.4085 10.347 61.8832 10.2131 62.3038 9.94536C62.7364 9.66485 63.0789 9.27596 63.3313 8.77869C63.5837 8.26867 63.7098 7.67577 63.7098 7C63.7098 6.32423 63.5837 5.7377 63.3313 5.24044C63.0789 4.73042 62.7364 4.34153 62.3038 4.07377C61.8832 3.79326 61.4085 3.65301 60.8798 3.65301C60.351 3.65301 59.8703 3.79326 59.4377 4.07377C59.0171 4.34153 58.6806 4.73042 58.4282 5.24044C58.1759 5.7377 58.0497 6.32423 58.0497 7C58.0497 7.67577 58.1759 8.26867 58.4282 8.77869C58.6806 9.27596 59.0171 9.66485 59.4377 9.94536C59.8703 10.2131 60.351 10.347 60.8798 10.347Z" fill="white"/>
</svg>
